<mxfile host="app.diagrams.net" modified="2023-04-11T09:26:34.912Z" agent="Mozilla/5.0 (Windows NT 10.0; Win64; x64) AppleWebKit/537.36 (KHTML, like Gecko) Chrome/112.0.0.0 Safari/537.36 Edg/112.0.1722.34" etag="1yd3t5UKCpO9Oul9CT0H" version="21.1.1" type="device">
  <diagram name="Page-1" id="kGy9_iCpgdj0j-Jq3pl4">
    <mxGraphModel dx="1674" dy="884" grid="1" gridSize="10" guides="1" tooltips="1" connect="1" arrows="1" fold="1" page="1" pageScale="1" pageWidth="850" pageHeight="1100" math="0" shadow="0">
      <root>
        <mxCell id="0" />
        <mxCell id="1" parent="0" />
        <mxCell id="rH0nEmu9LVpu3FUOvXsZ-1" value="ask" style="swimlane;whiteSpace=wrap;html=1;" vertex="1" parent="1">
          <mxGeometry x="40" y="90" width="760" height="350" as="geometry" />
        </mxCell>
        <mxCell id="rH0nEmu9LVpu3FUOvXsZ-2" value="Ask" style="rounded=0;whiteSpace=wrap;html=1;" vertex="1" parent="rH0nEmu9LVpu3FUOvXsZ-1">
          <mxGeometry x="30" y="50" width="120" height="60" as="geometry" />
        </mxCell>
      </root>
    </mxGraphModel>
  </diagram>
</mxfile>
